<?plantuml 1.2026.2?><svg xmlns="http://www.w3.org/2000/svg" xmlns:xlink="http://www.w3.org/1999/xlink" contentStyleType="text/css" data-diagram-type="ACTIVITY" height="499px" preserveAspectRatio="none" style="width:339px;height:499px;background:#FFFFFF;" version="1.1" viewBox="0 0 339 499" width="339px" zoomAndPan="magnify"><title>libtea &#8212; Activity (LinearRegression::predict)</title><defs/><g><g class="title" data-source-line="3"><text fill="#00396E" font-family="sans-serif" font-size="14" font-weight="bold" lengthAdjust="spacing" textLength="296.8301" x="20" y="34.5332">libtea &#8212; Activity (LinearRegression::predict)</text></g><ellipse cx="168.915" cy="58.6094" fill="#222222" rx="10" ry="10" style="stroke:#222222;stroke-width:1;"/><rect fill="#F1F1F1" height="50.1875" rx="12.5" ry="12.5" style="stroke:#181818;stroke-width:0.5;" width="195.0781" x="71.376" y="88.6094"/><text fill="#000000" font-family="sans-serif" font-size="12" lengthAdjust="spacing" textLength="175.0781" x="81.376" y="111.0664">Xn = normalize(X, mean, stddev)</text><text fill="#000000" font-family="sans-serif" font-size="12" lengthAdjust="spacing" textLength="74.6602" x="81.376" y="126.1602">(from last fit())</text><rect fill="#F1F1F1" height="35.0938" rx="12.5" ry="12.5" style="stroke:#181818;stroke-width:0.5;" width="69.6875" x="134.0713" y="158.7969"/><text fill="#000000" font-family="sans-serif" font-size="12" lengthAdjust="spacing" textLength="49.6875" x="144.0713" y="181.2539">result = []</text><rect fill="#F1F1F1" height="35.0938" rx="12.5" ry="12.5" style="stroke:#181818;stroke-width:0.5;" width="98.3633" x="119.7334" y="270.8096"/><text fill="#000000" font-family="sans-serif" font-size="12" lengthAdjust="spacing" textLength="78.3633" x="129.7334" y="293.2666">row = next row</text><rect fill="#F1F1F1" height="35.0938" rx="12.5" ry="12.5" style="stroke:#181818;stroke-width:0.5;" width="245.7676" x="46.0313" y="334.4854"/><text fill="#000000" font-family="sans-serif" font-size="12" lengthAdjust="spacing" textLength="225.7676" x="56.0313" y="356.9424">result.push_back(dot(row, weights) + bias)</text><polygon fill="#F1F1F1" points="140.1851,213.8906,197.645,213.8906,209.645,225.8906,197.645,237.8906,140.1851,237.8906,128.1851,225.8906,140.1851,213.8906" style="stroke:#181818;stroke-width:0.5;"/><text fill="#000000" font-family="sans-serif" font-size="11" lengthAdjust="spacing" textLength="17.1177" x="172.915" y="249.3096">yes</text><text fill="#000000" font-family="sans-serif" font-size="11" lengthAdjust="spacing" textLength="57.46" x="140.1851" y="230.3916">more rows?</text><text fill="#000000" font-family="sans-serif" font-size="11" lengthAdjust="spacing" textLength="12.2354" x="115.9497" y="223.4736">no</text><rect fill="#F1F1F1" height="35.0938" rx="12.5" ry="12.5" style="stroke:#181818;stroke-width:0.5;" width="84.0254" x="126.9023" y="411.5791"/><text fill="#000000" font-family="sans-serif" font-size="12" lengthAdjust="spacing" textLength="64.0254" x="136.9023" y="434.0361">return result</text><ellipse cx="168.915" cy="477.6729" fill="none" rx="11" ry="11" style="stroke:#222222;stroke-width:1;"/><ellipse cx="168.915" cy="477.6729" fill="#222222" rx="6" ry="6" style="stroke:#222222;stroke-width:1;"/><line style="stroke:#1257D1;stroke-width:1;" x1="168.915" x2="168.915" y1="68.6094" y2="88.6094"/><polygon fill="#1257D1" points="164.915,78.6094,168.915,88.6094,172.915,78.6094,168.915,82.6094" style="stroke:#1257D1;stroke-width:1;"/><line style="stroke:#1257D1;stroke-width:1;" x1="168.915" x2="168.915" y1="138.7969" y2="158.7969"/><polygon fill="#1257D1" points="164.915,148.7969,168.915,158.7969,172.915,148.7969,168.915,152.7969" style="stroke:#1257D1;stroke-width:1;"/><line style="stroke:#1257D1;stroke-width:1;" x1="168.915" x2="168.915" y1="305.9033" y2="334.4854"/><polygon fill="#1257D1" points="164.915,324.4854,168.915,334.4854,172.915,324.4854,168.915,328.4854" style="stroke:#1257D1;stroke-width:1;"/><line style="stroke:#1257D1;stroke-width:1;" x1="168.915" x2="168.915" y1="237.8906" y2="270.8096"/><polygon fill="#1257D1" points="164.915,260.8096,168.915,270.8096,172.915,260.8096,168.915,264.8096" style="stroke:#1257D1;stroke-width:1;"/><line style="stroke:#1257D1;stroke-width:1;" x1="168.915" x2="168.915" y1="369.5791" y2="379.5791"/><line style="stroke:#1257D1;stroke-width:1;" x1="168.915" x2="303.7988" y1="379.5791" y2="379.5791"/><polygon fill="#1257D1" points="299.7988,314.4854,303.7988,304.4854,307.7988,314.4854,303.7988,310.4854" style="stroke:#1257D1;stroke-width:1;"/><line style="stroke:#1257D1;stroke-width:1;" x1="303.7988" x2="303.7988" y1="225.8906" y2="379.5791"/><line style="stroke:#1257D1;stroke-width:1;" x1="303.7988" x2="209.645" y1="225.8906" y2="225.8906"/><polygon fill="#1257D1" points="219.645,221.8906,209.645,225.8906,219.645,229.8906,215.645,225.8906" style="stroke:#1257D1;stroke-width:1;"/><line style="stroke:#1257D1;stroke-width:1;" x1="128.1851" x2="34.0313" y1="225.8906" y2="225.8906"/><polygon fill="#1257D1" points="30.0313,300.4854,34.0313,310.4854,38.0313,300.4854,34.0313,304.4854" style="stroke:#1257D1;stroke-width:1;"/><line style="stroke:#1257D1;stroke-width:1;" x1="34.0313" x2="34.0313" y1="225.8906" y2="391.5791"/><line style="stroke:#1257D1;stroke-width:1;" x1="34.0313" x2="168.915" y1="391.5791" y2="391.5791"/><line style="stroke:#1257D1;stroke-width:1;" x1="168.915" x2="168.915" y1="391.5791" y2="411.5791"/><polygon fill="#1257D1" points="164.915,401.5791,168.915,411.5791,172.915,401.5791,168.915,405.5791" style="stroke:#1257D1;stroke-width:1;"/><line style="stroke:#1257D1;stroke-width:1;" x1="168.915" x2="168.915" y1="193.8906" y2="213.8906"/><polygon fill="#1257D1" points="164.915,203.8906,168.915,213.8906,172.915,203.8906,168.915,207.8906" style="stroke:#1257D1;stroke-width:1;"/><line style="stroke:#1257D1;stroke-width:1;" x1="168.915" x2="168.915" y1="446.6729" y2="466.6729"/><polygon fill="#1257D1" points="164.915,456.6729,168.915,466.6729,172.915,456.6729,168.915,460.6729" style="stroke:#1257D1;stroke-width:1;"/><?plantuml-src BO-zJiGm48JxVOgbiqK8lIE4wAceJWA4d7Zlii8_aNTpuQXu29wG9y5tqCvevfkvuZp5DH3s_UsQRdIcHFsofWYWh94mygZayUVh6nycvIFh2SqZP_BrYGwLHBXavvPAWIUr0AA-Ae3RPRp3N6hoaJ_9x3fCv7E7eY7GqRvaiwybOVIYk6SrrWxWMjyQjGMVNmU0RUQsmAHI2MlPvDuY2veJYGL4rwGpWZxqx0uNwP9l1sH-6_tqRa9HqymED-B3h6Bn6aVsqc2KmpyWbxQxPNMj6VygXlQZBF0B?></g></svg>