<?plantuml 1.2026.2?><svg xmlns="http://www.w3.org/2000/svg" xmlns:xlink="http://www.w3.org/1999/xlink" contentStyleType="text/css" data-diagram-type="CLASS" height="611px" preserveAspectRatio="none" style="width:1109px;height:611px;background:#FFFFFF;" version="1.1" viewBox="0 0 1109 611" width="1109px" zoomAndPan="magnify"><title>libtea &#8212; Class Diagram (Core API)</title><defs/><g><g class="title" data-source-line="3"><text fill="#00396E" font-family="sans-serif" font-size="14" font-weight="bold" lengthAdjust="spacing" textLength="228.3887" x="433.3057" y="24.5332">libtea &#8212; Class Diagram (Core API)</text></g><!--cluster libtea::ml--><g class="cluster" data-qualified-name="libtea..ml" data-source-line="7" id="ent0002"><path d="M8.5,44.6094 L71.7275,44.6094 A3.75,3.75 0 0 1 74.2275,47.1094 L81.2275,68.2188 L1099.5,68.2188 A2.5,2.5 0 0 1 1102,70.7188 L1102,602.1094 A2.5,2.5 0 0 1 1099.5,604.6094 L8.5,604.6094 A2.5,2.5 0 0 1 6,602.1094 L6,47.1094 A2.5,2.5 0 0 1 8.5,44.6094" fill="#62DAFC" style="stroke:#00396E;stroke-width:1.5;"/><line style="stroke:#00396E;stroke-width:1.5;" x1="6" x2="81.2275" y1="68.2188" y2="68.2188"/><text fill="#000000" font-family="sans-serif" font-size="14" font-weight="bold" lengthAdjust="spacing" textLength="62.2275" x="10" y="61.1426">libtea::ml</text></g><!--class Vector--><g class="entity" data-qualified-name="libtea..ml.Vector" data-source-line="9" id="ent0003"><rect fill="#5ADBFF" height="58.7031" rx="2.5" ry="2.5" style="stroke:#1257D1;stroke-width:0.5;" width="80.7109" x="987.5" y="271.1094"/><ellipse cx="1002.5" cy="292.4609" fill="#ADD1B2" rx="11" ry="11" style="stroke:#181818;stroke-width:1;"/><path d="M1005.2656,288.3359 Q1005.4219,288.1172 1005.6094,288.0078 Q1005.7969,287.8984 1006.0156,287.8984 Q1006.3906,287.8984 1006.625,288.1641 Q1006.8594,288.4141 1006.8594,289.0234 L1006.8594,290.4766 Q1006.8594,291.0859 1006.625,291.3516 Q1006.3906,291.6172 1006.0156,291.6172 Q1005.6719,291.6172 1005.4688,291.4141 Q1005.2656,291.2266 1005.1563,290.7109 Q1005.1094,290.3516 1004.9219,290.1641 Q1004.5938,289.7891 1003.9844,289.5703 Q1003.375,289.3516 1002.75,289.3516 Q1001.9844,289.3516 1001.3438,289.6797 Q1000.7188,290.0078 1000.2188,290.7578 Q999.7344,291.5078 999.7344,292.5391 L999.7344,293.6328 Q999.7344,294.8672 1000.625,295.6953 Q1001.5156,296.5078 1003.1094,296.5078 Q1004.0469,296.5078 1004.7031,296.2578 Q1005.0938,296.1016 1005.5156,295.6641 Q1005.7813,295.3984 1005.9219,295.3203 Q1006.0781,295.2422 1006.2813,295.2422 Q1006.6094,295.2422 1006.8594,295.5078 Q1007.125,295.7578 1007.125,296.1016 Q1007.125,296.4453 1006.7813,296.8516 Q1006.2813,297.4297 1005.4844,297.7578 Q1004.4063,298.2109 1003.1094,298.2109 Q1001.5938,298.2109 1000.3906,297.5859 Q999.4063,297.0859 998.7188,296.0234 Q998.0313,294.9453 998.0313,293.6641 L998.0313,292.5078 Q998.0313,291.1797 998.6406,290.0391 Q999.2656,288.8828 1000.3594,288.2734 Q1001.4531,287.6484 1002.6875,287.6484 Q1003.4219,287.6484 1004.0625,287.8203 Q1004.7188,287.9766 1005.2656,288.3359 Z " fill="#000000"/><text fill="#000000" font-family="sans-serif" font-size="12" font-style="italic" lengthAdjust="spacing" textLength="52.7109" x="1014.5" y="288.5664">&#171;typedef&#187;</text><text fill="#000000" font-family="sans-serif" font-size="14" lengthAdjust="spacing" textLength="40.4619" x="1020.6245" y="305.7363">Vector</text><line style="stroke:#1257D1;stroke-width:0.5;" x1="988.5" x2="1067.2109" y1="313.8125" y2="313.8125"/><line style="stroke:#1257D1;stroke-width:0.5;" x1="988.5" x2="1067.2109" y1="321.8125" y2="321.8125"/></g><!--class Matrix--><g class="entity" data-qualified-name="libtea..ml.Matrix" data-source-line="10" id="ent0004"><rect fill="#5ADBFF" height="58.7031" rx="2.5" ry="2.5" style="stroke:#1257D1;stroke-width:0.5;" width="80.7109" x="987.5" y="365.1094"/><ellipse cx="1002.5" cy="386.4609" fill="#ADD1B2" rx="11" ry="11" style="stroke:#181818;stroke-width:1;"/><path d="M1005.2656,382.3359 Q1005.4219,382.1172 1005.6094,382.0078 Q1005.7969,381.8984 1006.0156,381.8984 Q1006.3906,381.8984 1006.625,382.1641 Q1006.8594,382.4141 1006.8594,383.0234 L1006.8594,384.4766 Q1006.8594,385.0859 1006.625,385.3516 Q1006.3906,385.6172 1006.0156,385.6172 Q1005.6719,385.6172 1005.4688,385.4141 Q1005.2656,385.2266 1005.1563,384.7109 Q1005.1094,384.3516 1004.9219,384.1641 Q1004.5938,383.7891 1003.9844,383.5703 Q1003.375,383.3516 1002.75,383.3516 Q1001.9844,383.3516 1001.3438,383.6797 Q1000.7188,384.0078 1000.2188,384.7578 Q999.7344,385.5078 999.7344,386.5391 L999.7344,387.6328 Q999.7344,388.8672 1000.625,389.6953 Q1001.5156,390.5078 1003.1094,390.5078 Q1004.0469,390.5078 1004.7031,390.2578 Q1005.0938,390.1016 1005.5156,389.6641 Q1005.7813,389.3984 1005.9219,389.3203 Q1006.0781,389.2422 1006.2813,389.2422 Q1006.6094,389.2422 1006.8594,389.5078 Q1007.125,389.7578 1007.125,390.1016 Q1007.125,390.4453 1006.7813,390.8516 Q1006.2813,391.4297 1005.4844,391.7578 Q1004.4063,392.2109 1003.1094,392.2109 Q1001.5938,392.2109 1000.3906,391.5859 Q999.4063,391.0859 998.7188,390.0234 Q998.0313,388.9453 998.0313,387.6641 L998.0313,386.5078 Q998.0313,385.1797 998.6406,384.0391 Q999.2656,382.8828 1000.3594,382.2734 Q1001.4531,381.6484 1002.6875,381.6484 Q1003.4219,381.6484 1004.0625,381.8203 Q1004.7188,381.9766 1005.2656,382.3359 Z " fill="#000000"/><text fill="#000000" font-family="sans-serif" font-size="12" font-style="italic" lengthAdjust="spacing" textLength="52.7109" x="1014.5" y="382.5664">&#171;typedef&#187;</text><text fill="#000000" font-family="sans-serif" font-size="14" lengthAdjust="spacing" textLength="38.1104" x="1021.8003" y="399.7363">Matrix</text><line style="stroke:#1257D1;stroke-width:0.5;" x1="988.5" x2="1067.2109" y1="407.8125" y2="407.8125"/><line style="stroke:#1257D1;stroke-width:0.5;" x1="988.5" x2="1067.2109" y1="415.8125" y2="415.8125"/></g><!--class Estimator--><g class="entity" data-qualified-name="libtea..ml.Estimator" data-source-line="12" id="ent0005"><rect fill="#5ADBFF" height="83.2188" rx="2.5" ry="2.5" style="stroke:#1257D1;stroke-width:0.5;" width="180.8135" x="22" y="311.1094"/><ellipse cx="78.5947" cy="327.1094" fill="#B4A7E5" rx="11" ry="11" style="stroke:#181818;stroke-width:1;"/><path d="M79.5479,323.75 L79.5479,330.4063 L81.2666,330.4063 Q81.876,330.4063 82.1416,330.6406 Q82.4072,330.875 82.4072,331.2656 Q82.4072,331.6406 82.1416,331.875 Q81.876,332.1094 81.2666,332.1094 L76.126,332.1094 Q75.5166,332.1094 75.251,331.875 Q74.9854,331.6406 74.9854,331.25 Q74.9854,330.875 75.251,330.6406 Q75.5166,330.4063 76.126,330.4063 L77.8447,330.4063 L77.8447,323.75 L76.126,323.75 Q75.5166,323.75 75.251,323.5156 Q74.9854,323.2813 74.9854,322.8906 Q74.9854,322.5156 75.251,322.2813 Q75.5166,322.0469 76.126,322.0469 L81.2666,322.0469 Q81.876,322.0469 82.1416,322.2813 Q82.4072,322.5156 82.4072,322.8906 Q82.4072,323.2813 82.1416,323.5156 Q81.876,323.75 81.2666,323.75 L79.5479,323.75 Z " fill="#000000"/><text fill="#000000" font-family="sans-serif" font-size="14" font-style="italic" lengthAdjust="spacing" textLength="59.124" x="99.0947" y="332.8379">Estimator</text><line style="stroke:#1257D1;stroke-width:0.5;" x1="23" x2="201.8135" y1="343.1094" y2="343.1094"/><line style="stroke:#1257D1;stroke-width:0.5;" x1="23" x2="201.8135" y1="351.1094" y2="351.1094"/><g data-visibility-modifier="PUBLIC_METHOD"><ellipse cx="33" cy="365.4141" fill="#84BE84" rx="3" ry="3" style="stroke:#038048;stroke-width:1;"/></g><text fill="#000000" font-family="sans-serif" font-size="14" lengthAdjust="spacing" textLength="138.4619" x="42" y="369.6426">fit(X: Matrix, y: Vector)</text><g data-visibility-modifier="PUBLIC_METHOD"><ellipse cx="33" cy="383.0234" fill="#84BE84" rx="3" ry="3" style="stroke:#038048;stroke-width:1;"/></g><text fill="#000000" font-family="sans-serif" font-size="14" lengthAdjust="spacing" textLength="154.8135" x="42" y="387.252">predict(X: Matrix): Vector</text></g><!--class LinearRegression--><g class="entity" data-qualified-name="libtea..ml.LinearRegression" data-source-line="17" id="ent0006"><rect fill="#5ADBFF" height="249.7031" rx="2.5" ry="2.5" style="stroke:#1257D1;stroke-width:0.5;" width="454.0527" x="339" y="227.6094"/><ellipse cx="506.9111" cy="243.6094" fill="#ADD1B2" rx="11" ry="11" style="stroke:#181818;stroke-width:1;"/><path d="M509.6768,239.4844 Q509.833,239.2656 510.0205,239.1563 Q510.208,239.0469 510.4268,239.0469 Q510.8018,239.0469 511.0361,239.3125 Q511.2705,239.5625 511.2705,240.1719 L511.2705,241.625 Q511.2705,242.2344 511.0361,242.5 Q510.8018,242.7656 510.4268,242.7656 Q510.083,242.7656 509.8799,242.5625 Q509.6768,242.375 509.5674,241.8594 Q509.5205,241.5 509.333,241.3125 Q509.0049,240.9375 508.3955,240.7188 Q507.7861,240.5 507.1611,240.5 Q506.3955,240.5 505.7549,240.8281 Q505.1299,241.1563 504.6299,241.9063 Q504.1455,242.6563 504.1455,243.6875 L504.1455,244.7813 Q504.1455,246.0156 505.0361,246.8438 Q505.9268,247.6563 507.5205,247.6563 Q508.458,247.6563 509.1143,247.4063 Q509.5049,247.25 509.9268,246.8125 Q510.1924,246.5469 510.333,246.4688 Q510.4893,246.3906 510.6924,246.3906 Q511.0205,246.3906 511.2705,246.6563 Q511.5361,246.9063 511.5361,247.25 Q511.5361,247.5938 511.1924,248 Q510.6924,248.5781 509.8955,248.9063 Q508.8174,249.3594 507.5205,249.3594 Q506.0049,249.3594 504.8018,248.7344 Q503.8174,248.2344 503.1299,247.1719 Q502.4424,246.0938 502.4424,244.8125 L502.4424,243.6563 Q502.4424,242.3281 503.0518,241.1875 Q503.6768,240.0313 504.7705,239.4219 Q505.8643,238.7969 507.0986,238.7969 Q507.833,238.7969 508.4736,238.9688 Q509.1299,239.125 509.6768,239.4844 Z " fill="#000000"/><text fill="#000000" font-family="sans-serif" font-size="14" lengthAdjust="spacing" textLength="109.7305" x="527.4111" y="249.3379">LinearRegression</text><line style="stroke:#1257D1;stroke-width:0.5;" x1="340" x2="792.0527" y1="259.6094" y2="259.6094"/><g data-visibility-modifier="PRIVATE_FIELD"><rect fill="none" height="6" style="stroke:#C82930;stroke-width:1;" width="6" x="347" y="270.9141"/></g><text fill="#000000" font-family="sans-serif" font-size="14" lengthAdjust="spacing" textLength="95.71" x="359" y="278.1426">weights: Vector</text><g data-visibility-modifier="PRIVATE_FIELD"><rect fill="none" height="6" style="stroke:#C82930;stroke-width:1;" width="6" x="347" y="288.5234"/></g><text fill="#000000" font-family="sans-serif" font-size="14" lengthAdjust="spacing" textLength="75.5029" x="359" y="295.752">bias: double</text><g data-visibility-modifier="PRIVATE_FIELD"><rect fill="none" height="6" style="stroke:#C82930;stroke-width:1;" width="6" x="347" y="306.1328"/></g><text fill="#000000" font-family="sans-serif" font-size="14" lengthAdjust="spacing" textLength="57.5928" x="359" y="313.3613">lr: double</text><g data-visibility-modifier="PRIVATE_FIELD"><rect fill="none" height="6" style="stroke:#C82930;stroke-width:1;" width="6" x="347" y="323.7422"/></g><text fill="#000000" font-family="sans-serif" font-size="14" lengthAdjust="spacing" textLength="67.71" x="359" y="330.9707">epochs: int</text><g data-visibility-modifier="PRIVATE_FIELD"><rect fill="none" height="6" style="stroke:#C82930;stroke-width:1;" width="6" x="347" y="341.3516"/></g><text fill="#000000" font-family="sans-serif" font-size="14" lengthAdjust="spacing" textLength="83.2617" x="359" y="348.5801">mean: Vector</text><g data-visibility-modifier="PRIVATE_FIELD"><rect fill="none" height="6" style="stroke:#C82930;stroke-width:1;" width="6" x="347" y="358.9609"/></g><text fill="#000000" font-family="sans-serif" font-size="14" lengthAdjust="spacing" textLength="89.4893" x="359" y="366.1895">stddev: Vector</text><line style="stroke:#1257D1;stroke-width:1;" x1="340" x2="792.0527" y1="373.2656" y2="373.2656"/><g data-visibility-modifier="PRIVATE_METHOD"><rect fill="#F24D5C" height="6" style="stroke:#C82930;stroke-width:1;" width="6" x="347" y="384.5703"/></g><text fill="#000000" font-family="sans-serif" font-size="14" lengthAdjust="spacing" textLength="198.4404" x="359" y="391.7988">dot(a: Vector, b: Vector): double</text><line style="stroke:#1257D1;stroke-width:1;" x1="340" x2="792.0527" y1="398.875" y2="398.875"/><g data-visibility-modifier="PUBLIC_METHOD"><ellipse cx="350" cy="413.1797" fill="#84BE84" rx="3" ry="3" style="stroke:#038048;stroke-width:1;"/></g><text fill="#000000" font-family="sans-serif" font-size="14" lengthAdjust="spacing" textLength="428.0527" x="359" y="417.4082">LinearRegression(learning_rate: double = 0.01, iterations: int = 1000)</text><g data-visibility-modifier="PUBLIC_METHOD"><ellipse cx="350" cy="430.7891" fill="#84BE84" rx="3" ry="3" style="stroke:#038048;stroke-width:1;"/></g><text fill="#000000" font-family="sans-serif" font-size="14" lengthAdjust="spacing" textLength="138.4619" x="359" y="435.0176">fit(X: Matrix, y: Vector)</text><g data-visibility-modifier="PUBLIC_METHOD"><ellipse cx="350" cy="448.3984" fill="#84BE84" rx="3" ry="3" style="stroke:#038048;stroke-width:1;"/></g><text fill="#000000" font-family="sans-serif" font-size="14" lengthAdjust="spacing" textLength="154.8135" x="359" y="452.627">predict(X: Matrix): Vector</text><g data-visibility-modifier="PUBLIC_METHOD"><ellipse cx="350" cy="466.0078" fill="#84BE84" rx="3" ry="3" style="stroke:#038048;stroke-width:1;"/></g><text fill="#000000" font-family="sans-serif" font-size="14" lengthAdjust="spacing" textLength="127.5996" x="359" y="470.2363">getWeights(): Vector</text></g><!--class SplitData--><g class="entity" data-qualified-name="libtea..ml.SplitData" data-source-line="37" id="ent0010"><rect fill="#5ADBFF" height="129.1406" rx="2.5" ry="2.5" style="stroke:#1257D1;stroke-width:0.5;" width="116.2617" x="970" y="459.1094"/><ellipse cx="997.3548" cy="480.4609" fill="#ADD1B2" rx="11" ry="11" style="stroke:#181818;stroke-width:1;"/><path d="M1000.1204,476.3359 Q1000.2767,476.1172 1000.4642,476.0078 Q1000.6517,475.8984 1000.8704,475.8984 Q1001.2454,475.8984 1001.4798,476.1641 Q1001.7142,476.4141 1001.7142,477.0234 L1001.7142,478.4766 Q1001.7142,479.0859 1001.4798,479.3516 Q1001.2454,479.6172 1000.8704,479.6172 Q1000.5267,479.6172 1000.3235,479.4141 Q1000.1204,479.2266 1000.011,478.7109 Q999.9642,478.3516 999.7767,478.1641 Q999.4485,477.7891 998.8392,477.5703 Q998.2298,477.3516 997.6048,477.3516 Q996.8392,477.3516 996.1985,477.6797 Q995.5735,478.0078 995.0735,478.7578 Q994.5892,479.5078 994.5892,480.5391 L994.5892,481.6328 Q994.5892,482.8672 995.4798,483.6953 Q996.3704,484.5078 997.9642,484.5078 Q998.9017,484.5078 999.5579,484.2578 Q999.9485,484.1016 1000.3704,483.6641 Q1000.636,483.3984 1000.7767,483.3203 Q1000.9329,483.2422 1001.136,483.2422 Q1001.4642,483.2422 1001.7142,483.5078 Q1001.9798,483.7578 1001.9798,484.1016 Q1001.9798,484.4453 1001.636,484.8516 Q1001.136,485.4297 1000.3392,485.7578 Q999.261,486.2109 997.9642,486.2109 Q996.4485,486.2109 995.2454,485.5859 Q994.261,485.0859 993.5735,484.0234 Q992.886,482.9453 992.886,481.6641 L992.886,480.5078 Q992.886,479.1797 993.4954,478.0391 Q994.1204,476.8828 995.2142,476.2734 Q996.3079,475.6484 997.5423,475.6484 Q998.2767,475.6484 998.9173,475.8203 Q999.5735,475.9766 1000.1204,476.3359 Z " fill="#000000"/><text fill="#000000" font-family="sans-serif" font-size="12" font-style="italic" lengthAdjust="spacing" textLength="42.6855" x="1021.1608" y="476.5664">&#171;struct&#187;</text><text fill="#000000" font-family="sans-serif" font-size="14" lengthAdjust="spacing" textLength="56.8066" x="1014.1003" y="493.7363">SplitData</text><line style="stroke:#1257D1;stroke-width:0.5;" x1="971" x2="1085.2617" y1="501.8125" y2="501.8125"/><g data-visibility-modifier="PUBLIC_FIELD"><ellipse cx="981" cy="516.1172" fill="none" rx="3" ry="3" style="stroke:#038048;stroke-width:1;"/></g><text fill="#000000" font-family="sans-serif" font-size="14" lengthAdjust="spacing" textLength="90.248" x="990" y="520.3457">X_train: Matrix</text><g data-visibility-modifier="PUBLIC_FIELD"><ellipse cx="981" cy="533.7266" fill="none" rx="3" ry="3" style="stroke:#038048;stroke-width:1;"/></g><text fill="#000000" font-family="sans-serif" font-size="14" lengthAdjust="spacing" textLength="85.5791" x="990" y="537.9551">X_test: Matrix</text><g data-visibility-modifier="PUBLIC_FIELD"><ellipse cx="981" cy="551.3359" fill="none" rx="3" ry="3" style="stroke:#038048;stroke-width:1;"/></g><text fill="#000000" font-family="sans-serif" font-size="14" lengthAdjust="spacing" textLength="90.2617" x="990" y="555.5645">y_train: Vector</text><g data-visibility-modifier="PUBLIC_FIELD"><ellipse cx="981" cy="568.9453" fill="none" rx="3" ry="3" style="stroke:#038048;stroke-width:1;"/></g><text fill="#000000" font-family="sans-serif" font-size="14" lengthAdjust="spacing" textLength="85.5928" x="990" y="573.1738">y_test: Vector</text><line style="stroke:#1257D1;stroke-width:0.5;" x1="971" x2="1085.2617" y1="580.25" y2="580.25"/></g><!--class metrics--><g class="entity" data-qualified-name="libtea..ml.metrics" data-source-line="44" id="ent0011"><rect fill="#5ADBFF" height="111.5313" rx="2.5" ry="2.5" style="stroke:#1257D1;stroke-width:0.5;" width="325.5918" x="403" y="80.6094"/><ellipse cx="525.3667" cy="101.9609" fill="#ADD1B2" rx="11" ry="11" style="stroke:#181818;stroke-width:1;"/><path d="M528.1323,97.8359 Q528.2886,97.6172 528.4761,97.5078 Q528.6636,97.3984 528.8823,97.3984 Q529.2573,97.3984 529.4917,97.6641 Q529.7261,97.9141 529.7261,98.5234 L529.7261,99.9766 Q529.7261,100.5859 529.4917,100.8516 Q529.2573,101.1172 528.8823,101.1172 Q528.5386,101.1172 528.3354,100.9141 Q528.1323,100.7266 528.0229,100.2109 Q527.9761,99.8516 527.7886,99.6641 Q527.4604,99.2891 526.8511,99.0703 Q526.2417,98.8516 525.6167,98.8516 Q524.8511,98.8516 524.2104,99.1797 Q523.5854,99.5078 523.0854,100.2578 Q522.6011,101.0078 522.6011,102.0391 L522.6011,103.1328 Q522.6011,104.3672 523.4917,105.1953 Q524.3823,106.0078 525.9761,106.0078 Q526.9136,106.0078 527.5698,105.7578 Q527.9604,105.6016 528.3823,105.1641 Q528.6479,104.8984 528.7886,104.8203 Q528.9448,104.7422 529.1479,104.7422 Q529.4761,104.7422 529.7261,105.0078 Q529.9917,105.2578 529.9917,105.6016 Q529.9917,105.9453 529.6479,106.3516 Q529.1479,106.9297 528.3511,107.2578 Q527.2729,107.7109 525.9761,107.7109 Q524.4604,107.7109 523.2573,107.0859 Q522.2729,106.5859 521.5854,105.5234 Q520.8979,104.4453 520.8979,103.1641 L520.8979,102.0078 Q520.8979,100.6797 521.5073,99.5391 Q522.1323,98.3828 523.2261,97.7734 Q524.3198,97.1484 525.5542,97.1484 Q526.2886,97.1484 526.9292,97.3203 Q527.5854,97.4766 528.1323,97.8359 Z " fill="#000000"/><text fill="#000000" font-family="sans-serif" font-size="12" font-style="italic" lengthAdjust="spacing" textLength="50.7129" x="556.6895" y="98.0664">&#171;header&#187;</text><text fill="#000000" font-family="sans-serif" font-size="14" lengthAdjust="spacing" textLength="72.3584" x="545.8667" y="115.2363">metrics.hpp</text><line style="stroke:#1257D1;stroke-width:0.5;" x1="404" x2="727.5918" y1="123.3125" y2="123.3125"/><line style="stroke:#1257D1;stroke-width:0.5;" x1="404" x2="727.5918" y1="131.3125" y2="131.3125"/><g data-visibility-modifier="PUBLIC_METHOD"><ellipse cx="414" cy="145.6172" fill="#84BE84" rx="3" ry="3" style="stroke:#038048;stroke-width:1;"/></g><text fill="#000000" font-family="sans-serif" font-size="14" lengthAdjust="spacing" textLength="272.3574" x="423" y="149.8457">mae(y_true: Vector, y_pred: Vector): double</text><g data-visibility-modifier="PUBLIC_METHOD"><ellipse cx="414" cy="163.2266" fill="#84BE84" rx="3" ry="3" style="stroke:#038048;stroke-width:1;"/></g><text fill="#000000" font-family="sans-serif" font-size="14" lengthAdjust="spacing" textLength="271.5713" x="423" y="167.4551">mse(y_true: Vector, y_pred: Vector): double</text><g data-visibility-modifier="PUBLIC_METHOD"><ellipse cx="414" cy="180.8359" fill="#84BE84" rx="3" ry="3" style="stroke:#038048;stroke-width:1;"/></g><text fill="#000000" font-family="sans-serif" font-size="14" lengthAdjust="spacing" textLength="299.5918" x="423" y="185.0645">r2_score(y_true: Vector, y_pred: Vector): double</text></g><!--class tts--><g class="entity" data-qualified-name="libtea..ml.tts" data-source-line="50" id="ent0012"><rect fill="#5ADBFF" height="76.3125" rx="2.5" ry="2.5" style="stroke:#1257D1;stroke-width:0.5;" width="604.1768" x="264" y="512.6094"/><ellipse cx="503.0801" cy="533.9609" fill="#ADD1B2" rx="11" ry="11" style="stroke:#181818;stroke-width:1;"/><path d="M505.8457,529.8359 Q506.002,529.6172 506.1895,529.5078 Q506.377,529.3984 506.5957,529.3984 Q506.9707,529.3984 507.2051,529.6641 Q507.4395,529.9141 507.4395,530.5234 L507.4395,531.9766 Q507.4395,532.5859 507.2051,532.8516 Q506.9707,533.1172 506.5957,533.1172 Q506.252,533.1172 506.0488,532.9141 Q505.8457,532.7266 505.7363,532.2109 Q505.6895,531.8516 505.502,531.6641 Q505.1738,531.2891 504.5645,531.0703 Q503.9551,530.8516 503.3301,530.8516 Q502.5645,530.8516 501.9238,531.1797 Q501.2988,531.5078 500.7988,532.2578 Q500.3145,533.0078 500.3145,534.0391 L500.3145,535.1328 Q500.3145,536.3672 501.2051,537.1953 Q502.0957,538.0078 503.6895,538.0078 Q504.627,538.0078 505.2832,537.7578 Q505.6738,537.6016 506.0957,537.1641 Q506.3613,536.8984 506.502,536.8203 Q506.6582,536.7422 506.8613,536.7422 Q507.1895,536.7422 507.4395,537.0078 Q507.7051,537.2578 507.7051,537.6016 Q507.7051,537.9453 507.3613,538.3516 Q506.8613,538.9297 506.0645,539.2578 Q504.9863,539.7109 503.6895,539.7109 Q502.1738,539.7109 500.9707,539.0859 Q499.9863,538.5859 499.2988,537.5234 Q498.6113,536.4453 498.6113,535.1641 L498.6113,534.0078 Q498.6113,532.6797 499.2207,531.5391 Q499.8457,530.3828 500.9395,529.7734 Q502.0332,529.1484 503.2676,529.1484 Q504.002,529.1484 504.6426,529.3203 Q505.2988,529.4766 505.8457,529.8359 Z " fill="#000000"/><text fill="#000000" font-family="sans-serif" font-size="12" font-style="italic" lengthAdjust="spacing" textLength="50.7129" x="556.9819" y="530.0664">&#171;header&#187;</text><text fill="#000000" font-family="sans-serif" font-size="14" lengthAdjust="spacing" textLength="117.5166" x="523.5801" y="547.2363">train_test_split.hpp</text><line style="stroke:#1257D1;stroke-width:0.5;" x1="265" x2="867.1768" y1="555.3125" y2="555.3125"/><line style="stroke:#1257D1;stroke-width:0.5;" x1="265" x2="867.1768" y1="563.3125" y2="563.3125"/><g data-visibility-modifier="PUBLIC_METHOD"><ellipse cx="275" cy="577.6172" fill="#84BE84" rx="3" ry="3" style="stroke:#038048;stroke-width:1;"/></g><text fill="#000000" font-family="sans-serif" font-size="14" lengthAdjust="spacing" textLength="578.1768" x="284" y="581.8457">train_test_split(X: Matrix, y: Vector, test_size: double = 0.2, random_seed: int = 42): SplitData</text></g><!--reverse link Estimator to LinearRegression--><g class="link" data-entity-1="ent0005" data-entity-2="ent0006" data-link-type="extension" data-source-line="33" id="lnk7"><path codeLine="33" d="M221.24,352.6094 C260.59,352.6094 290.72,352.6094 338.88,352.6094" fill="none" id="Estimator-backto-LinearRegression" style="stroke:#1257D1;stroke-width:1;stroke-dasharray:7,7;"/><polygon fill="none" points="203.24,352.6094,221.24,358.6094,221.24,346.6094,203.24,352.6094" style="stroke:#1257D1;stroke-width:1;"/></g><!--link LinearRegression to Vector--><g class="link" data-entity-1="ent0006" data-entity-2="ent0003" data-link-type="dependency" data-source-line="34" id="lnk8"><path codeLine="34" d="M793.29,327.0294 C867.98,318.5894 937.218,310.7635 981.438,305.7635" fill="none" id="LinearRegression-to-Vector" style="stroke:#1257D1;stroke-width:1;stroke-dasharray:7,7;"/><polygon fill="#1257D1" points="987.4,305.0894,978.0076,302.1259,982.4317,305.6512,978.9064,310.0752,987.4,305.0894" style="stroke:#1257D1;stroke-width:1;"/></g><!--link LinearRegression to Matrix--><g class="link" data-entity-1="ent0006" data-entity-2="ent0004" data-link-type="dependency" data-source-line="35" id="lnk9"><path codeLine="35" d="M793.29,373.2694 C867.98,380.0894 937.2048,386.4148 981.4248,390.4448" fill="none" id="LinearRegression-to-Matrix" style="stroke:#1257D1;stroke-width:1;stroke-dasharray:7,7;"/><polygon fill="#1257D1" points="987.4,390.9894,978.8002,386.1891,982.4206,390.5356,978.0741,394.156,987.4,390.9894" style="stroke:#1257D1;stroke-width:1;"/></g><!--link tts to SplitData--><g class="link" data-entity-1="ent0012" data-entity-2="ent0010" data-link-type="dependency" data-source-line="54" id="lnk13"><path codeLine="54" d="M868.05,532.9394 C906.62,530.6794 936.2404,528.9418 963.9404,527.3118" fill="none" id="tts-to-SplitData" style="stroke:#1257D1;stroke-width:1;"/><polygon fill="#1257D1" points="969.93,526.9594,960.7106,523.495,964.9386,527.2531,961.1805,531.4812,969.93,526.9594" style="stroke:#1257D1;stroke-width:1;"/><text fill="#000000" font-family="sans-serif" font-size="13" lengthAdjust="spacing" textLength="40.46" x="899" y="526.1045">returns</text></g><!--link tts to Matrix--><g class="link" data-entity-1="ent0012" data-entity-2="ent0004" data-link-type="dependency" data-source-line="55" id="lnk14"><path codeLine="55" d="M813.92,512.6094 C832.46,507.3494 850.67,501.3794 868,494.6094 C912.49,477.2194 953.2925,450.5288 984.2025,427.8488" fill="none" id="tts-to-Matrix" style="stroke:#1257D1;stroke-width:1;stroke-dasharray:7,7;"/><polygon fill="#1257D1" points="989.04,424.2994,979.4175,426.3986,985.0088,427.2573,984.1501,432.8486,989.04,424.2994" style="stroke:#1257D1;stroke-width:1;"/></g><!--link tts to Vector--><g class="link" data-entity-1="ent0012" data-entity-2="ent0003" data-link-type="dependency" data-source-line="56" id="lnk15"><path codeLine="56" d="M835.27,512.5494 C846.65,507.2794 857.62,501.3194 868,494.6094 C901.39,473.0194 943.07,376.8694 970,347.6094 C975.47,341.6594 977.1725,339.7366 983.4625,334.2666" fill="none" id="tts-to-Vector" style="stroke:#1257D1;stroke-width:1;stroke-dasharray:7,7;"/><polygon fill="#1257D1" points="987.99,330.3294,978.5739,333.2169,984.2171,333.6104,983.8236,339.2536,987.99,330.3294" style="stroke:#1257D1;stroke-width:1;"/></g><!--link metrics to Vector--><g class="link" data-entity-1="ent0011" data-entity-2="ent0003" data-link-type="dependency" data-source-line="57" id="lnk16"><path codeLine="57" d="M729.34,167.1394 C775.01,178.0894 824.16,192.1594 868,209.6094 C910.85,226.6694 951.1271,250.3483 982.3671,270.4883" fill="none" id="metrics-to-Vector" style="stroke:#1257D1;stroke-width:1;stroke-dasharray:7,7;"/><polygon fill="#1257D1" points="987.41,273.7394,982.0131,265.5009,983.2076,271.0302,977.6783,272.2247,987.41,273.7394" style="stroke:#1257D1;stroke-width:1;"/></g><?plantuml-src fLDDRzD04BtxLmmvEOfZt8XJ52nLBGSaa118q9iriIVsghksjJi6Ggd4Z-0NyakwplgpoQNY5ErxRyPlvarUYJALJKOGXgyRjUQ258LrewJdiM198CMU2U7Vdxzm8z4Ok1MOQrJWtrIQuFhJ-wNdIJemS0LQv0L39ZIbBAhIysfCxp4dMBWsswsI2tZmF83qrEoh5LOQTZi-rfJH8Ou7wYEo5ZzdbEL4oQGFc1AyComKjjKF5WTO7GJxTzkkBe3Zjkk-T7IjAHFfHBBi1PP_72rz42MX_aov9cFi45txzGzgXpEJ8Wlk1Leagvgz98T8FNzJNQM5rLZZ3b24vRo9uIoZxtDixNwoYdticG3smqppZpZrwhbrNzfdASeyqSZKby1RYCBeAW1XLubjJiwUnQ-YA5h-_pOjdnD_Smlpp_Oy9hVx7OPd2xUAimp2C1wRN6ITYp76BxKKV8kCze8CwoRbEEulvIvXZQBihGyW6PvZnruu7UtO2IyTpqAHhKvDMDJr0j10zxOc2iACz6X28Vbj_uR6V8z9kzVB8Q-KUM61tYGcjN_I5rHDHpcDVferCUqoXvcOBytpN7xnUW9m0l5hVewR03IMMQKIGwqpTuvlDjRR46Hlh_tyUXrF4jw29cvqQJfsSWyZCCJLHp817xqd?></g></svg>