<?plantuml 1.2026.2?><svg xmlns="http://www.w3.org/2000/svg" xmlns:xlink="http://www.w3.org/1999/xlink" contentStyleType="text/css" data-diagram-type="DESCRIPTION" height="515px" preserveAspectRatio="none" style="width:883px;height:515px;background:#FFFFFF;" version="1.1" viewBox="0 0 883 515" width="883px" zoomAndPan="magnify"><title>libtea &#8212; Package Overview</title><defs/><g><g class="title" data-source-line="3"><text fill="#00396E" font-family="sans-serif" font-size="14" font-weight="bold" lengthAdjust="spacing" textLength="181.7539" x="343.623" y="24.5332">libtea &#8212; Package Overview</text></g><!--cluster ML--><g class="cluster" data-qualified-name="ML" data-source-line="7" id="ent0002"><path d="M293.5,44.6094 L356.7275,44.6094 A3.75,3.75 0 0 1 359.2275,47.1094 L366.2275,68.2188 L873.5,68.2188 A2.5,2.5 0 0 1 876,70.7188 L876,427.1094 A2.5,2.5 0 0 1 873.5,429.6094 L293.5,429.6094 A2.5,2.5 0 0 1 291,427.1094 L291,47.1094 A2.5,2.5 0 0 1 293.5,44.6094" fill="#62DAFC" style="stroke:#00396E;stroke-width:1.5;"/><line style="stroke:#00396E;stroke-width:1.5;" x1="291" x2="366.2275" y1="68.2188" y2="68.2188"/><text fill="#000000" font-family="sans-serif" font-size="14" font-weight="bold" lengthAdjust="spacing" textLength="62.2275" x="295" y="61.1426">libtea::ml</text></g><!--entity Estimator--><g class="entity" data-qualified-name="ML.Estimator" data-source-line="8" id="ent0003"><rect fill="#FFFFFF" height="47.6094" rx="2.5" ry="2.5" style="stroke:#1257D1;stroke-width:0.5;" width="99.124" x="723.5" y="181.6094"/><rect fill="#FFFFFF" height="10" style="stroke:#1257D1;stroke-width:0.5;" width="15" x="802.624" y="186.6094"/><rect fill="#FFFFFF" height="2" style="stroke:#1257D1;stroke-width:0.5;" width="4" x="800.624" y="188.6094"/><rect fill="#FFFFFF" height="2" style="stroke:#1257D1;stroke-width:0.5;" width="4" x="800.624" y="192.6094"/><text fill="#000000" font-family="sans-serif" font-size="14" lengthAdjust="spacing" textLength="59.124" x="738.5" y="216.1426">Estimator</text></g><!--entity LinearRegression--><g class="entity" data-qualified-name="ML.LinearRegression" data-source-line="9" id="ent0004"><rect fill="#FFFFFF" height="47.6094" rx="2.5" ry="2.5" style="stroke:#1257D1;stroke-width:0.5;" width="149.7305" x="334" y="156.6094"/><rect fill="#FFFFFF" height="10" style="stroke:#1257D1;stroke-width:0.5;" width="15" x="463.7305" y="161.6094"/><rect fill="#FFFFFF" height="2" style="stroke:#1257D1;stroke-width:0.5;" width="4" x="461.7305" y="163.6094"/><rect fill="#FFFFFF" height="2" style="stroke:#1257D1;stroke-width:0.5;" width="4" x="461.7305" y="167.6094"/><text fill="#000000" font-family="sans-serif" font-size="14" lengthAdjust="spacing" textLength="109.7305" x="349" y="191.1426">LinearRegression</text></g><!--entity LRImpl--><g class="entity" data-qualified-name="ML.LRImpl" data-source-line="10" id="ent0005"><rect fill="#FFFFFF" height="65.2188" rx="2.5" ry="2.5" style="stroke:#1257D1;stroke-width:0.5;" width="173.8545" x="686" y="81.1094"/><rect fill="#FFFFFF" height="10" style="stroke:#1257D1;stroke-width:0.5;" width="15" x="839.8545" y="86.1094"/><rect fill="#FFFFFF" height="2" style="stroke:#1257D1;stroke-width:0.5;" width="4" x="837.8545" y="88.1094"/><rect fill="#FFFFFF" height="2" style="stroke:#1257D1;stroke-width:0.5;" width="4" x="837.8545" y="92.1094"/><text fill="#000000" font-family="sans-serif" font-size="14" lengthAdjust="spacing" textLength="133.8545" x="701" y="115.6426">linear_regression.cpp</text><text fill="#000000" font-family="sans-serif" font-size="14" lengthAdjust="spacing" textLength="104.2617" x="701" y="133.252">(implementation)</text></g><!--entity Metrics--><g class="entity" data-qualified-name="ML.Metrics" data-source-line="11" id="ent0006"><rect fill="#FFFFFF" height="65.2188" rx="2.5" ry="2.5" style="stroke:#1257D1;stroke-width:0.5;" width="173.0342" x="322.5" y="240.1094"/><rect fill="#FFFFFF" height="10" style="stroke:#1257D1;stroke-width:0.5;" width="15" x="475.5342" y="245.1094"/><rect fill="#FFFFFF" height="2" style="stroke:#1257D1;stroke-width:0.5;" width="4" x="473.5342" y="247.1094"/><rect fill="#FFFFFF" height="2" style="stroke:#1257D1;stroke-width:0.5;" width="4" x="473.5342" y="251.1094"/><text fill="#000000" font-family="sans-serif" font-size="14" lengthAdjust="spacing" textLength="72.3584" x="337.5" y="274.6426">metrics.hpp</text><text fill="#000000" font-family="sans-serif" font-size="14" lengthAdjust="spacing" textLength="133.0342" x="337.5" y="292.252">(mae, mse, r2_score)</text></g><!--entity Split--><g class="entity" data-qualified-name="ML.Split" data-source-line="12" id="ent0007"><rect fill="#FFFFFF" height="65.2188" rx="2.5" ry="2.5" style="stroke:#1257D1;stroke-width:0.5;" width="204.1787" x="307" y="340.1094"/><rect fill="#FFFFFF" height="10" style="stroke:#1257D1;stroke-width:0.5;" width="15" x="491.1787" y="345.1094"/><rect fill="#FFFFFF" height="2" style="stroke:#1257D1;stroke-width:0.5;" width="4" x="489.1787" y="347.1094"/><rect fill="#FFFFFF" height="2" style="stroke:#1257D1;stroke-width:0.5;" width="4" x="489.1787" y="351.1094"/><text fill="#000000" font-family="sans-serif" font-size="14" lengthAdjust="spacing" textLength="117.5166" x="322" y="374.6426">train_test_split.hpp</text><text fill="#000000" font-family="sans-serif" font-size="14" lengthAdjust="spacing" textLength="164.1787" x="322" y="392.252">(train_test_split, SplitData)</text></g><!--entity Types--><g class="entity" data-qualified-name="ML.Types" data-source-line="13" id="ent0008"><rect fill="#FFFFFF" height="65.2188" rx="2.5" ry="2.5" style="stroke:#1257D1;stroke-width:0.5;" width="135.6758" x="705" y="265.1094"/><rect fill="#FFFFFF" height="10" style="stroke:#1257D1;stroke-width:0.5;" width="15" x="820.6758" y="270.1094"/><rect fill="#FFFFFF" height="2" style="stroke:#1257D1;stroke-width:0.5;" width="4" x="818.6758" y="272.1094"/><rect fill="#FFFFFF" height="2" style="stroke:#1257D1;stroke-width:0.5;" width="4" x="818.6758" y="276.1094"/><text fill="#000000" font-family="sans-serif" font-size="14" lengthAdjust="spacing" textLength="57.6064" x="720" y="299.6426">base.hpp</text><text fill="#000000" font-family="sans-serif" font-size="14" lengthAdjust="spacing" textLength="95.6758" x="720" y="317.252">(Vector, Matrix)</text></g><!--entity SplitData--><g class="entity" data-qualified-name="ML.SplitData" data-source-line="14" id="ent0009"><rect fill="#FFFFFF" height="47.6094" rx="2.5" ry="2.5" style="stroke:#1257D1;stroke-width:0.5;" width="96.8066" x="724.5" y="365.6094"/><rect fill="#FFFFFF" height="10" style="stroke:#1257D1;stroke-width:0.5;" width="15" x="801.3066" y="370.6094"/><rect fill="#FFFFFF" height="2" style="stroke:#1257D1;stroke-width:0.5;" width="4" x="799.3066" y="372.6094"/><rect fill="#FFFFFF" height="2" style="stroke:#1257D1;stroke-width:0.5;" width="4" x="799.3066" y="376.6094"/><text fill="#000000" font-family="sans-serif" font-size="14" lengthAdjust="spacing" textLength="56.8066" x="739.5" y="400.1426">SplitData</text></g><!--entity Example--><g class="entity" data-qualified-name="Example" data-source-line="17" id="ent0010"><rect fill="#FFFFFF" height="47.6094" rx="2.5" ry="2.5" style="stroke:#1257D1;stroke-width:0.5;" width="208.8818" x="7" y="248.6094"/><rect fill="#FFFFFF" height="10" style="stroke:#1257D1;stroke-width:0.5;" width="15" x="195.8818" y="253.6094"/><rect fill="#FFFFFF" height="2" style="stroke:#1257D1;stroke-width:0.5;" width="4" x="193.8818" y="255.6094"/><rect fill="#FFFFFF" height="2" style="stroke:#1257D1;stroke-width:0.5;" width="4" x="193.8818" y="259.6094"/><text fill="#000000" font-family="sans-serif" font-size="14" lengthAdjust="spacing" textLength="168.8818" x="22" y="283.1426">examples/basic_usage.cpp</text></g><g class="entity" data-qualified-name="GMN20" data-source-line="31" id="ent0021"><path d="M680,449.1094 L680,508.1641 L866.4644,508.1641 L866.4644,459.1094 L856.4644,449.1094 L680,449.1094" fill="#FFD140" style="stroke:#181818;stroke-width:0.5;"/><path d="M856.4644,449.1094 L856.4644,459.1094 L866.4644,459.1094 L856.4644,449.1094" fill="#FFD140" style="stroke:#181818;stroke-width:1;"/><text fill="#000000" font-family="sans-serif" font-size="13" lengthAdjust="spacing" textLength="140.9053" x="686" y="467.6045">LinearRegression stores</text><text fill="#000000" font-family="sans-serif" font-size="13" lengthAdjust="spacing" textLength="126.4263" x="686" y="483.9561">mean/stddev from fit()</text><text fill="#000000" font-family="sans-serif" font-size="13" lengthAdjust="spacing" textLength="165.4644" x="686" y="500.3076">and reuses them in predict().</text></g><!--link Example to Split--><g class="link" data-entity-1="ent0010" data-entity-2="ent0007" data-link-type="dependency" data-source-line="19" id="lnk11"><path d="M183.66,296.6894 C222.08,309.6894 264.3768,324.0055 306.0868,338.1255" fill="none" id="Example-to-Split" style="stroke:#1257D1;stroke-width:1;"/><polygon fill="#1257D1" points="311.77,340.0494,304.5278,333.3747,307.034,338.4461,301.9626,340.9523,311.77,340.0494" style="stroke:#1257D1;stroke-width:1;"/><text fill="#000000" font-family="sans-serif" font-size="13" lengthAdjust="spacing" textLength="26.0063" x="247.5" y="317.1045">calls</text></g><!--link Example to LinearRegression--><g class="link" data-entity-1="ent0010" data-entity-2="ent0004" data-link-type="dependency" data-source-line="20" id="lnk12"><path d="M189.75,248.5594 C234.3,234.6894 284.281,219.1223 328.271,205.4323" fill="none" id="Example-to-LinearRegression" style="stroke:#1257D1;stroke-width:1;"/><polygon fill="#1257D1" points="334,203.6494,324.2179,202.5044,329.2258,205.1351,326.5951,210.143,334,203.6494" style="stroke:#1257D1;stroke-width:1;"/><text fill="#000000" font-family="sans-serif" font-size="13" lengthAdjust="spacing" textLength="27.46" x="247" y="221.1045">uses</text></g><!--link Example to Metrics--><g class="link" data-entity-1="ent0010" data-entity-2="ent0006" data-link-type="dependency" data-source-line="21" id="lnk13"><path d="M216.27,272.6094 C250.86,272.6094 282.99,272.6094 316.07,272.6094" fill="none" id="Example-to-Metrics" style="stroke:#1257D1;stroke-width:1;"/><polygon fill="#1257D1" points="322.07,272.6094,313.07,268.6094,317.07,272.6094,313.07,276.6094,322.07,272.6094" style="stroke:#1257D1;stroke-width:1;"/><text fill="#000000" font-family="sans-serif" font-size="13" lengthAdjust="spacing" textLength="26.0063" x="247.5" y="269.1045">calls</text></g><!--link LinearRegression to Estimator--><g class="link" data-entity-1="ent0004" data-entity-2="ent0003" data-link-type="extension" data-source-line="23" id="lnk14"><path d="M484.21,179.4494 C531.71,179.3794 594.6,180.5194 650,185.6094 C674.26,187.8394 683.2701,188.8562 705.5101,192.8262" fill="none" id="LinearRegression-to-Estimator" style="stroke:#1257D1;stroke-width:1;stroke-dasharray:7,7;"/><polygon fill="none" points="723.23,195.9894,706.5645,186.9196,704.4557,198.7329,723.23,195.9894" style="stroke:#1257D1;stroke-width:1;"/></g><!--link LinearRegression to Types--><g class="link" data-entity-1="ent0004" data-entity-2="ent0008" data-link-type="dependency" data-source-line="24" id="lnk15"><path d="M484.17,203.7294 C531.65,218.6194 594.53,238.5094 650,256.6094 C667.84,262.4294 681.4221,266.9396 699.2621,272.9296" fill="none" id="LinearRegression-to-Types" style="stroke:#1257D1;stroke-width:1;"/><polygon fill="#1257D1" points="704.95,274.8394,697.6913,268.1827,700.21,273.2479,695.1449,275.7666,704.95,274.8394" style="stroke:#1257D1;stroke-width:1;"/><text fill="#000000" font-family="sans-serif" font-size="13" lengthAdjust="spacing" textLength="27.46" x="582" y="220.1045">uses</text></g><!--link LinearRegression to LRImpl--><g class="link" data-entity-1="ent0004" data-entity-2="ent0005" data-link-type="dependency" data-source-line="25" id="lnk16"><path d="M484.13,166.8894 C542.67,156.0594 618.5402,142.0112 679.9802,130.6412" fill="none" id="LinearRegression-to-LRImpl" style="stroke:#1257D1;stroke-width:1;stroke-dasharray:7,7;"/><polygon fill="#1257D1" points="685.88,129.5494,676.3024,127.2539,680.9635,130.4592,677.7581,135.1203,685.88,129.5494" style="stroke:#1257D1;stroke-width:1;"/><text fill="#000000" font-family="sans-serif" font-size="13" lengthAdjust="spacing" textLength="56.3799" x="567.5" y="134.1045">defined in</text></g><!--link Metrics to Types--><g class="link" data-entity-1="ent0006" data-entity-2="ent0008" data-link-type="dependency" data-source-line="26" id="lnk17"><path d="M495.79,278.5294 C559.77,282.9494 639.9443,288.4853 698.9243,292.5653" fill="none" id="Metrics-to-Types" style="stroke:#1257D1;stroke-width:1;"/><polygon fill="#1257D1" points="704.91,292.9794,696.2075,288.3678,699.9219,292.6343,695.6554,296.3487,704.91,292.9794" style="stroke:#1257D1;stroke-width:1;"/><text fill="#000000" font-family="sans-serif" font-size="13" lengthAdjust="spacing" textLength="68.6436" x="561.5" y="279.1045">uses Vector</text></g><!--link Split to Types--><g class="link" data-entity-1="ent0007" data-entity-2="ent0008" data-link-type="dependency" data-source-line="27" id="lnk18"><path d="M511.32,351.6194 C573.13,338.8094 644.5449,324.0172 698.8649,312.7572" fill="none" id="Split-to-Types" style="stroke:#1257D1;stroke-width:1;"/><polygon fill="#1257D1" points="704.74,311.5394,695.1154,309.4494,699.8441,312.5543,696.7392,317.2829,704.74,311.5394" style="stroke:#1257D1;stroke-width:1;"/><text fill="#000000" font-family="sans-serif" font-size="13" lengthAdjust="spacing" textLength="107.6436" x="542" y="321.1045">uses Vector/Matrix</text></g><!--link Split to SplitData--><g class="link" data-entity-1="ent0007" data-entity-2="ent0009" data-link-type="dependency" data-source-line="28" id="lnk19"><path d="M511.18,379.9094 C521.25,380.5294 531.32,381.1094 541,381.6094 C604.32,384.8794 671.4722,386.9964 718.2022,388.2664" fill="none" id="Split-to-SplitData" style="stroke:#1257D1;stroke-width:1;"/><polygon fill="#1257D1" points="724.2,388.4294,715.312,384.1863,719.2018,388.2935,715.0947,392.1834,724.2,388.4294" style="stroke:#1257D1;stroke-width:1;"/><text fill="#000000" font-family="sans-serif" font-size="13" lengthAdjust="spacing" textLength="40.46" x="575.5" y="378.1045">returns</text></g><!--link LinearRegression to GMN20--><g class="link" data-entity-1="ent0004" data-entity-2="ent0021" data-link-type="association" data-source-line="31" id="lnk22"><path d="M484.19,200.9794 C494.4,206.5594 503.82,213.6394 511,222.6094 C559.47,283.2094 491.17,335.1294 541,394.6094 C575.39,435.6594 631.58,456.6494 679.93,467.3794" fill="none" id="LinearRegression-GMN20" style="stroke:#1257D1;stroke-width:1;stroke-dasharray:7,7;"/></g><?plantuml-src TLFDRjim3BxpATYUMY1nW1rpo6az36YmeHjswGg3bUb4c2GR4frrs0Rq8VQ4Uv9HbkkrINUnBNu_r4V9PpOODpICLRKQ_5BsxBdg1-y0n8fZTFPUcF3Fus_yGEOhxHZV7pWUB7y3SDmAIeVHxlQ2ZOrin7O1e9-evqM-NdjtZfHmUuq_0F7sAedr95syozLvbQ5h6vZY3UyYfwHc8-Euc8bkhDLnBbQcxx-42-jxfoc2KDxBPT7VlDDgLdcMQ4sgzYFN4o_G9tt4DtKoNUJ2tnPM5aWa6shX97NgdPL9ULnUuCVyUaj2nM9SPeDxIZo9FkjykhZ0BQdzG-5z-jxps6ZM_vFd5Vm2kEK7ogdIIisigOUamyrno_WA231zu7AvANfSeo7dqWlaU9PA6XA_v4pvPpsSYAhgv-RPmPtWsMMCzcJ_YiDcEXUbDDmgtg0DyDJxs07BzA0a-m-wAgDzHfe7gSJ8CiIWSK8dFDtQhdtjTftiDgdvU4wUAQoID0qVi8sTnzRAnQK251fjCEub_qOQ1Vl8ZJKALy2Avgxm5m00?></g></svg>