<?plantuml 1.2026.2?><svg xmlns="http://www.w3.org/2000/svg" xmlns:xlink="http://www.w3.org/1999/xlink" contentStyleType="text/css" data-diagram-type="SEQUENCE" height="830px" preserveAspectRatio="none" style="width:731px;height:830px;background:#FFFFFF;" version="1.1" viewBox="0 0 731 830" width="731px" zoomAndPan="magnify"><title>libtea &#8212; Sequence (basic_usage)</title><defs/><g><text fill="#00396E" font-family="sans-serif" font-size="14" font-weight="bold" lengthAdjust="spacing" textLength="222.1816" x="253.4639" y="29.5332">libtea &#8212; Sequence (basic_usage)</text><rect fill="#62DAFC" height="79.0547" style="stroke:#00396E;stroke-width:1.5;" width="349.4277" x="40.5586" y="168.5703"/><rect fill="#62DAFC" height="79.0547" style="stroke:#00396E;stroke-width:1.5;" width="483.1582" x="40.5586" y="261.625"/><rect fill="#62DAFC" height="79.0547" style="stroke:#00396E;stroke-width:1.5;" width="483.1582" x="40.5586" y="354.6797"/><rect fill="#62DAFC" height="200.4609" style="stroke:#00396E;stroke-width:1.5;" width="632.4131" x="40.5586" y="447.7344"/><g class="participant-lifeline" data-entity-uid="part1" data-qualified-name="User" id="part1-lifeline"><g><title>User</title><rect fill="#000000" fill-opacity="0.00000" height="627.0313" width="8" x="18.7793" y="121.2188"/><line style="stroke:#878A8F;stroke-width:0.5;stroke-dasharray:5,5;" x1="22" x2="22" y1="121.2188" y2="748.25"/></g></g><g class="participant-lifeline" data-entity-uid="part2" data-qualified-name="Main" id="part2-lifeline"><g><title>examples.basic_usage.cpp</title><rect fill="#000000" fill-opacity="0.00000" height="627.0313" width="8" x="137.9995" y="121.2188"/><line style="stroke:#878A8F;stroke-width:0.5;stroke-dasharray:5,5;" x1="141.5586" x2="141.5586" y1="121.2188" y2="748.25"/></g></g><g class="participant-lifeline" data-entity-uid="part3" data-qualified-name="Split" id="part3-lifeline"><g><title>train_test_split</title><rect fill="#000000" fill-opacity="0.00000" height="627.0313" width="8" x="323.8521" y="121.2188"/><line style="stroke:#878A8F;stroke-width:0.5;stroke-dasharray:5,5;" x1="327.7178" x2="327.7178" y1="121.2188" y2="748.25"/></g></g><g class="participant-lifeline" data-entity-uid="part4" data-qualified-name="LR" id="part4-lifeline"><g><title>LinearRegression</title><rect fill="#000000" fill-opacity="0.00000" height="627.0313" width="8" x="447.8516" y="121.2188"/><line style="stroke:#878A8F;stroke-width:0.5;stroke-dasharray:5,5;" x1="450.9863" x2="450.9863" y1="121.2188" y2="748.25"/></g></g><g class="participant-lifeline" data-entity-uid="part5" data-qualified-name="Metrics" id="part5-lifeline"><g><title>metrics</title><rect fill="#000000" fill-opacity="0.00000" height="627.0313" width="8" x="589.3442" y="121.2188"/><line style="stroke:#878A8F;stroke-width:0.5;stroke-dasharray:5,5;" x1="592.7168" x2="592.7168" y1="121.2188" y2="748.25"/></g></g><g class="participant-lifeline" data-entity-uid="part6" data-qualified-name="Out" id="part6-lifeline"><g><title>stdout</title><rect fill="#000000" fill-opacity="0.00000" height="627.0313" width="8" x="695.0405" y="121.2188"/><line style="stroke:#878A8F;stroke-width:0.5;stroke-dasharray:5,5;" x1="698.9717" x2="698.9717" y1="121.2188" y2="748.25"/></g></g><g class="participant participant-head" data-entity-uid="part1" data-qualified-name="User" id="part1-head"><text fill="#000000" font-family="sans-serif" font-size="14" lengthAdjust="spacing" textLength="29.5586" x="5" y="118.1426">User</text><ellipse cx="22.7793" cy="52.1094" fill="#E2E2F0" rx="8" ry="8" style="stroke:#181818;stroke-width:0.5;"/><path d="M22.7793,60.1094 L22.7793,87.1094 M9.7793,68.1094 L35.7793,68.1094 M22.7793,87.1094 L9.7793,102.1094 M22.7793,87.1094 L35.7793,102.1094" fill="none" style="stroke:#181818;stroke-width:0.5;"/></g><g class="participant participant-tail" data-entity-uid="part1" data-qualified-name="User" id="part1-tail"><text fill="#000000" font-family="sans-serif" font-size="14" lengthAdjust="spacing" textLength="29.5586" x="5" y="761.7832">User</text><ellipse cx="22.7793" cy="773.3594" fill="#E2E2F0" rx="8" ry="8" style="stroke:#181818;stroke-width:0.5;"/><path d="M22.7793,781.3594 L22.7793,808.3594 M9.7793,789.3594 L35.7793,789.3594 M22.7793,808.3594 L9.7793,823.3594 M22.7793,808.3594 L35.7793,823.3594" fill="none" style="stroke:#181818;stroke-width:0.5;"/></g><g class="participant participant-head" data-entity-uid="part2" data-qualified-name="Main" id="part2-head"><rect fill="#E2E2F0" height="49.2188" rx="2.5" ry="2.5" style="stroke:#181818;stroke-width:0.5;" width="182.8818" x="50.5586" y="71"/><text fill="#000000" font-family="sans-serif" font-size="14" lengthAdjust="spacing" textLength="168.8818" x="57.5586" y="92.5332">examples/basic_usage.cpp</text><text fill="#000000" font-family="sans-serif" font-size="14" lengthAdjust="spacing" textLength="39.6689" x="122.165" y="110.1426">main()</text></g><g class="participant participant-tail" data-entity-uid="part2" data-qualified-name="Main" id="part2-tail"><rect fill="#E2E2F0" height="49.2188" rx="2.5" ry="2.5" style="stroke:#181818;stroke-width:0.5;" width="182.8818" x="50.5586" y="747.25"/><text fill="#000000" font-family="sans-serif" font-size="14" lengthAdjust="spacing" textLength="168.8818" x="57.5586" y="768.7832">examples/basic_usage.cpp</text><text fill="#000000" font-family="sans-serif" font-size="14" lengthAdjust="spacing" textLength="39.6689" x="122.165" y="786.3926">main()</text></g><g class="participant participant-head" data-entity-uid="part3" data-qualified-name="Split" id="part3-head"><rect fill="#E2E2F0" height="31.6094" rx="2.5" ry="2.5" style="stroke:#181818;stroke-width:0.5;" width="104.2686" x="275.7178" y="88.6094"/><text fill="#000000" font-family="sans-serif" font-size="14" lengthAdjust="spacing" textLength="90.2686" x="282.7178" y="110.1426">train_test_split</text></g><g class="participant participant-tail" data-entity-uid="part3" data-qualified-name="Split" id="part3-tail"><rect fill="#E2E2F0" height="31.6094" rx="2.5" ry="2.5" style="stroke:#181818;stroke-width:0.5;" width="104.2686" x="275.7178" y="747.25"/><text fill="#000000" font-family="sans-serif" font-size="14" lengthAdjust="spacing" textLength="90.2686" x="282.7178" y="768.7832">train_test_split</text></g><g class="participant participant-head" data-entity-uid="part4" data-qualified-name="LR" id="part4-head"><rect fill="#E2E2F0" height="31.6094" rx="2.5" ry="2.5" style="stroke:#181818;stroke-width:0.5;" width="123.7305" x="389.9863" y="88.6094"/><text fill="#000000" font-family="sans-serif" font-size="14" lengthAdjust="spacing" textLength="109.7305" x="396.9863" y="110.1426">LinearRegression</text></g><g class="participant participant-tail" data-entity-uid="part4" data-qualified-name="LR" id="part4-tail"><rect fill="#E2E2F0" height="31.6094" rx="2.5" ry="2.5" style="stroke:#181818;stroke-width:0.5;" width="123.7305" x="389.9863" y="747.25"/><text fill="#000000" font-family="sans-serif" font-size="14" lengthAdjust="spacing" textLength="109.7305" x="396.9863" y="768.7832">LinearRegression</text></g><g class="participant participant-head" data-entity-uid="part5" data-qualified-name="Metrics" id="part5-head"><rect fill="#E2E2F0" height="49.2188" rx="2.5" ry="2.5" style="stroke:#181818;stroke-width:0.5;" width="139.2549" x="523.7168" y="71"/><text fill="#000000" font-family="sans-serif" font-size="14" lengthAdjust="spacing" textLength="45.1104" x="570.7891" y="92.5332">metrics</text><text fill="#000000" font-family="sans-serif" font-size="14" lengthAdjust="spacing" textLength="125.2549" x="530.7168" y="110.1426">(mae/mse/r2_score)</text></g><g class="participant participant-tail" data-entity-uid="part5" data-qualified-name="Metrics" id="part5-tail"><rect fill="#E2E2F0" height="49.2188" rx="2.5" ry="2.5" style="stroke:#181818;stroke-width:0.5;" width="139.2549" x="523.7168" y="747.25"/><text fill="#000000" font-family="sans-serif" font-size="14" lengthAdjust="spacing" textLength="45.1104" x="570.7891" y="768.7832">metrics</text><text fill="#000000" font-family="sans-serif" font-size="14" lengthAdjust="spacing" textLength="125.2549" x="530.7168" y="786.3926">(mae/mse/r2_score)</text></g><g class="participant participant-head" data-entity-uid="part6" data-qualified-name="Out" id="part6-head"><rect fill="#E2E2F0" height="31.6094" rx="2.5" ry="2.5" style="stroke:#181818;stroke-width:0.5;" width="52.1377" x="672.9717" y="88.6094"/><text fill="#000000" font-family="sans-serif" font-size="14" lengthAdjust="spacing" textLength="38.1377" x="679.9717" y="110.1426">stdout</text></g><g class="participant participant-tail" data-entity-uid="part6" data-qualified-name="Out" id="part6-tail"><rect fill="#E2E2F0" height="31.6094" rx="2.5" ry="2.5" style="stroke:#181818;stroke-width:0.5;" width="52.1377" x="672.9717" y="747.25"/><text fill="#000000" font-family="sans-serif" font-size="14" lengthAdjust="spacing" textLength="38.1377" x="679.9717" y="768.7832">stdout</text></g><g class="message" data-entity-1="part1" data-entity-2="part2" id="msg1"><polygon fill="#1257D1" points="129.9995,149.5703,139.9995,153.5703,129.9995,157.5703,133.9995,153.5703" style="stroke:#1257D1;stroke-width:1;"/><line style="stroke:#1257D1;stroke-width:1;" x1="22.7793" x2="135.9995" y1="153.5703" y2="153.5703"/><text fill="#000000" font-family="sans-serif" font-size="13" lengthAdjust="spacing" textLength="18.7891" x="29.7793" y="148.7139">run</text></g><path d="M40.5586,168.5703 L162.854,168.5703 L162.854,176.9219 L152.854,186.9219 L40.5586,186.9219 L40.5586,168.5703" fill="#EEEEEE" style="stroke:#000000;stroke-width:1.5;"/><rect fill="none" height="79.0547" style="stroke:#00396E;stroke-width:1.5;" width="349.4277" x="40.5586" y="168.5703"/><text fill="#000000" font-family="sans-serif" font-size="13" font-weight="bold" lengthAdjust="spacing" textLength="77.2954" x="55.5586" y="183.0654">Split dataset</text><g class="message" data-entity-1="part2" data-entity-2="part3" id="msg2"><polygon fill="#1257D1" points="315.8521,205.2734,325.8521,209.2734,315.8521,213.2734,319.8521,209.2734" style="stroke:#1257D1;stroke-width:1;"/><line style="stroke:#1257D1;stroke-width:1;" x1="141.9995" x2="321.8521" y1="209.2734" y2="209.2734"/><text fill="#000000" font-family="sans-serif" font-size="13" lengthAdjust="spacing" textLength="161.8525" x="148.9995" y="204.417">train_test_split(X, y, 0.2, 42)</text></g><g class="message" data-entity-1="part3" data-entity-2="part2" id="msg3"><polygon fill="#1257D1" points="152.9995,235.625,142.9995,239.625,152.9995,243.625,148.9995,239.625" style="stroke:#1257D1;stroke-width:1;"/><line style="stroke:#1257D1;stroke-width:1;stroke-dasharray:2,2;" x1="146.9995" x2="326.8521" y1="239.625" y2="239.625"/><text fill="#000000" font-family="sans-serif" font-size="13" lengthAdjust="spacing" textLength="52.749" x="158.9995" y="234.7686">SplitData</text></g><path d="M40.5586,261.625 L117.3413,261.625 L117.3413,269.9766 L107.3413,279.9766 L40.5586,279.9766 L40.5586,261.625" fill="#EEEEEE" style="stroke:#000000;stroke-width:1.5;"/><rect fill="none" height="79.0547" style="stroke:#00396E;stroke-width:1.5;" width="483.1582" x="40.5586" y="261.625"/><text fill="#000000" font-family="sans-serif" font-size="13" font-weight="bold" lengthAdjust="spacing" textLength="31.7827" x="55.5586" y="276.1201">Train</text><g class="message" data-entity-1="part2" data-entity-2="part4" id="msg4"><polygon fill="#1257D1" points="439.8516,298.3281,449.8516,302.3281,439.8516,306.3281,443.8516,302.3281" style="stroke:#1257D1;stroke-width:1;"/><line style="stroke:#1257D1;stroke-width:1;" x1="141.9995" x2="445.8516" y1="302.3281" y2="302.3281"/><text fill="#000000" font-family="sans-serif" font-size="13" lengthAdjust="spacing" textLength="171.9961" x="148.9995" y="297.4717">LinearRegression(0.01, 1000)</text></g><g class="message" data-entity-1="part2" data-entity-2="part4" id="msg5"><polygon fill="#1257D1" points="439.8516,328.6797,449.8516,332.6797,439.8516,336.6797,443.8516,332.6797" style="stroke:#1257D1;stroke-width:1;"/><line style="stroke:#1257D1;stroke-width:1;" x1="141.9995" x2="445.8516" y1="332.6797" y2="332.6797"/><text fill="#000000" font-family="sans-serif" font-size="13" lengthAdjust="spacing" textLength="106.2026" x="148.9995" y="327.8232">fit(X_train, y_train)</text></g><path d="M40.5586,354.6797 L129.6304,354.6797 L129.6304,363.0313 L119.6304,373.0313 L40.5586,373.0313 L40.5586,354.6797" fill="#EEEEEE" style="stroke:#000000;stroke-width:1.5;"/><rect fill="none" height="79.0547" style="stroke:#00396E;stroke-width:1.5;" width="483.1582" x="40.5586" y="354.6797"/><text fill="#000000" font-family="sans-serif" font-size="13" font-weight="bold" lengthAdjust="spacing" textLength="44.0718" x="55.5586" y="369.1748">Predict</text><g class="message" data-entity-1="part2" data-entity-2="part4" id="msg6"><polygon fill="#1257D1" points="439.8516,391.3828,449.8516,395.3828,439.8516,399.3828,443.8516,395.3828" style="stroke:#1257D1;stroke-width:1;"/><line style="stroke:#1257D1;stroke-width:1;" x1="141.9995" x2="445.8516" y1="395.3828" y2="395.3828"/><text fill="#000000" font-family="sans-serif" font-size="13" lengthAdjust="spacing" textLength="84.5317" x="148.9995" y="390.5264">predict(X_test)</text></g><g class="message" data-entity-1="part4" data-entity-2="part2" id="msg7"><polygon fill="#1257D1" points="152.9995,421.7344,142.9995,425.7344,152.9995,429.7344,148.9995,425.7344" style="stroke:#1257D1;stroke-width:1;"/><line style="stroke:#1257D1;stroke-width:1;stroke-dasharray:2,2;" x1="146.9995" x2="450.8516" y1="425.7344" y2="425.7344"/><text fill="#000000" font-family="sans-serif" font-size="13" lengthAdjust="spacing" textLength="39.749" x="158.9995" y="420.8779">y_pred</text></g><path d="M40.5586,447.7344 L139.0313,447.7344 L139.0313,456.0859 L129.0313,466.0859 L40.5586,466.0859 L40.5586,447.7344" fill="#EEEEEE" style="stroke:#000000;stroke-width:1.5;"/><rect fill="none" height="200.4609" style="stroke:#00396E;stroke-width:1.5;" width="632.4131" x="40.5586" y="447.7344"/><text fill="#000000" font-family="sans-serif" font-size="13" font-weight="bold" lengthAdjust="spacing" textLength="53.4727" x="55.5586" y="462.2295">Evaluate</text><g class="message" data-entity-1="part2" data-entity-2="part5" id="msg8"><polygon fill="#1257D1" points="581.3442,484.4375,591.3442,488.4375,581.3442,492.4375,585.3442,488.4375" style="stroke:#1257D1;stroke-width:1;"/><line style="stroke:#1257D1;stroke-width:1;" x1="141.9995" x2="587.3442" y1="488.4375" y2="488.4375"/><text fill="#000000" font-family="sans-serif" font-size="13" lengthAdjust="spacing" textLength="115.6035" x="148.9995" y="483.5811">mae(y_test, y_pred)</text></g><g class="message" data-entity-1="part5" data-entity-2="part2" id="msg9"><polygon fill="#1257D1" points="152.9995,514.7891,142.9995,518.7891,152.9995,522.7891,148.9995,518.7891" style="stroke:#1257D1;stroke-width:1;"/><line style="stroke:#1257D1;stroke-width:1;stroke-dasharray:2,2;" x1="146.9995" x2="592.3442" y1="518.7891" y2="518.7891"/><text fill="#000000" font-family="sans-serif" font-size="13" lengthAdjust="spacing" textLength="28.1709" x="158.9995" y="513.9326">MAE</text></g><g class="message" data-entity-1="part2" data-entity-2="part5" id="msg10"><polygon fill="#1257D1" points="581.3442,545.1406,591.3442,549.1406,581.3442,553.1406,585.3442,549.1406" style="stroke:#1257D1;stroke-width:1;"/><line style="stroke:#1257D1;stroke-width:1;" x1="141.9995" x2="587.3442" y1="549.1406" y2="549.1406"/><text fill="#000000" font-family="sans-serif" font-size="13" lengthAdjust="spacing" textLength="114.8735" x="148.9995" y="544.2842">mse(y_test, y_pred)</text></g><g class="message" data-entity-1="part5" data-entity-2="part2" id="msg11"><polygon fill="#1257D1" points="152.9995,575.4922,142.9995,579.4922,152.9995,583.4922,148.9995,579.4922" style="stroke:#1257D1;stroke-width:1;"/><line style="stroke:#1257D1;stroke-width:1;stroke-dasharray:2,2;" x1="146.9995" x2="592.3442" y1="579.4922" y2="579.4922"/><text fill="#000000" font-family="sans-serif" font-size="13" lengthAdjust="spacing" textLength="28.1709" x="158.9995" y="574.6357">MSE</text></g><g class="message" data-entity-1="part2" data-entity-2="part5" id="msg12"><polygon fill="#1257D1" points="581.3442,605.8438,591.3442,609.8438,581.3442,613.8438,585.3442,609.8438" style="stroke:#1257D1;stroke-width:1;"/><line style="stroke:#1257D1;stroke-width:1;" x1="141.9995" x2="587.3442" y1="609.8438" y2="609.8438"/><text fill="#000000" font-family="sans-serif" font-size="13" lengthAdjust="spacing" textLength="140.8926" x="148.9995" y="604.9873">r2_score(y_test, y_pred)</text></g><g class="message" data-entity-1="part5" data-entity-2="part2" id="msg13"><polygon fill="#1257D1" points="152.9995,636.1953,142.9995,640.1953,152.9995,644.1953,148.9995,640.1953" style="stroke:#1257D1;stroke-width:1;"/><line style="stroke:#1257D1;stroke-width:1;stroke-dasharray:2,2;" x1="146.9995" x2="592.3442" y1="640.1953" y2="640.1953"/><text fill="#000000" font-family="sans-serif" font-size="13" lengthAdjust="spacing" textLength="16.6182" x="158.9995" y="635.3389">R2</text></g><g class="message" data-entity-1="part2" data-entity-2="part6" id="msg14"><polygon fill="#1257D1" points="687.0405,673.5469,697.0405,677.5469,687.0405,681.5469,691.0405,677.5469" style="stroke:#1257D1;stroke-width:1;"/><line style="stroke:#1257D1;stroke-width:1;" x1="141.9995" x2="693.0405" y1="677.5469" y2="677.5469"/><text fill="#000000" font-family="sans-serif" font-size="13" lengthAdjust="spacing" textLength="121.3545" x="148.9995" y="672.6904">print(MAE, MSE, R2)</text></g><path d="M328,690.5469 L328,732.5469 L573,732.5469 L573,700.5469 L563,690.5469 L328,690.5469" fill="#FFD140" style="stroke:#181818;stroke-width:0.5;"/><path d="M563,690.5469 L563,700.5469 L573,700.5469 L563,690.5469" fill="#FFD140" style="stroke:#181818;stroke-width:0.5;"/><text fill="#000000" font-family="sans-serif" font-size="13" lengthAdjust="spacing" textLength="224.7134" x="334" y="709.042">fit() computes and stores mean/stddev.</text><text fill="#000000" font-family="sans-serif" font-size="13" lengthAdjust="spacing" textLength="223.2534" x="334" y="725.3936">predict() normalizes using stored stats.</text><?plantuml-src ZLFDRjim3BxhARYURC1nt62d7WOCQ6yfDYGRi4C1WvMvL80bQn8LB3lj8VQ4Uv9HTjBPHG-z4UJtHrf-PvpkKqTGr-jaL_n4bcgVRAyK6-u9UlF8XF3tzn_Oquz4JXCKZnYDRbF40vLAeUOXmDT8GNaCRBJnw1Ykw2TQtrDSp-2rzlx1MJIkAAy08znBkQHna5RB5BcDlZSymlQvMkAsnX667Hq2nMW6D-AskoN84WUZuuChBDBQHbg7JHlr4EXiFysNfCZTa2RVJucLogl1wiEO5MuW9AVK8Gp9Jx6WGyP8hCQvuARk3RpSfFXMmQc2fjvKy7vJgWct-gyyDcv5JP7hBXvViigpzdOdk9Uh5qtTN5TmtJHDkKH-pwxj64IyfwASgtyEr1dDIvQVcfafuKibpLdAKvldSv6x8_O9cPvLpcSLi9ozE8qorPae2S_JcURznxlNoF5jvFrhvCk7Vel2RZEjSr6HppwUmJWk95gLBIf1oMjt0nCCHtaHyjPWF709Uh0-YGkWwo3Axo2b9NHhUKeT7Mi1NcvQWXk2nTxy4aoAnXqcGkOXnpe7WMoY_W40?></g></svg>